<svg xmlns="http://www.w3.org/2000/svg" viewBox="0 0 1080 1920" font-family="Segoe UI, Arial, sans-serif"><defs><marker id="arr" markerWidth="9" markerHeight="9" refX="8" refY="4" orient="auto"><path d="M0,0 L8,4 L0,8 z" fill="#444"/></marker></defs><rect width="1080" height="1920" fill="#ffffff"/><line x1="210" y1="180" x2="210" y2="192" stroke="#444" stroke-width="2" marker-end="url(#arr)"/><line x1="210" y1="242" x2="210" y2="254" stroke="#444" stroke-width="2" marker-end="url(#arr)"/><line x1="210" y1="304" x2="210" y2="316" stroke="#444" stroke-width="2" marker-end="url(#arr)"/><line x1="210" y1="366" x2="210" y2="378" stroke="#444" stroke-width="2" marker-end="url(#arr)"/><line x1="210" y1="428" x2="210" y2="440" stroke="#444" stroke-width="2" marker-end="url(#arr)"/><line x1="210" y1="490" x2="210" y2="502" stroke="#444" stroke-width="2" marker-end="url(#arr)"/><line x1="210" y1="552" x2="210" y2="564" stroke="#444" stroke-width="2" marker-end="url(#arr)"/><line x1="210" y1="614" x2="210" y2="626" stroke="#444" stroke-width="2" marker-end="url(#arr)"/><line x1="210" y1="676" x2="210" y2="688" stroke="#444" stroke-width="2" marker-end="url(#arr)"/><line x1="210" y1="738" x2="210" y2="750" stroke="#444" stroke-width="2" marker-end="url(#arr)"/><line x1="210" y1="800" x2="210" y2="812" stroke="#444" stroke-width="2" marker-end="url(#arr)"/><line x1="210" y1="862" x2="210" y2="874" stroke="#444" stroke-width="2" marker-end="url(#arr)"/><line x1="210" y1="924" x2="210" y2="936" stroke="#444" stroke-width="2" marker-end="url(#arr)"/><line x1="210" y1="986" x2="210" y2="998" stroke="#444" stroke-width="2" marker-end="url(#arr)"/><line x1="210" y1="1054" x2="210" y2="1066" stroke="#444" stroke-width="2" marker-end="url(#arr)"/><line x1="210" y1="1116" x2="210" y2="1128" stroke="#444" stroke-width="2" marker-end="url(#arr)"/><line x1="223" y1="1128" x2="720" y2="170" stroke="#82b366" stroke-width="2" marker-end="url(#arr)"/><text x="471" y="643" font-size="12" text-anchor="middle" fill="#333" stroke="#ffffff" stroke-width="4" paint-order="stroke">then</text><line x1="567" y1="622" x2="565" y2="692" stroke="#d79b00" stroke-width="2" marker-end="url(#arr)"/><text x="566" y="651" font-size="12" text-anchor="middle" fill="#333" stroke="#ffffff" stroke-width="4" paint-order="stroke">1 s</text><line x1="565" y1="748" x2="565" y2="762" stroke="#444" stroke-width="2" marker-end="url(#arr)"/><line x1="565" y1="818" x2="565" y2="832" stroke="#444" stroke-width="2" marker-end="url(#arr)"/><line x1="565" y1="888" x2="565" y2="902" stroke="#444" stroke-width="2" marker-end="url(#arr)"/><line x1="565" y1="958" x2="565" y2="972" stroke="#444" stroke-width="2" marker-end="url(#arr)"/><line x1="565" y1="1028" x2="565" y2="1042" stroke="#444" stroke-width="2" marker-end="url(#arr)"/><line x1="565" y1="1098" x2="565" y2="1112" stroke="#444" stroke-width="2" marker-end="url(#arr)"/><line x1="565" y1="1168" x2="565" y2="1182" stroke="#444" stroke-width="2" marker-end="url(#arr)"/><rect x="40" y="16" width="1000" height="46" rx="10" fill="#f5f5f5" stroke="#666666" stroke-width="2"/><text x="540" y="36" font-size="13" text-anchor="middle" fill="#1a1a1a" font-weight="bold">SMART DEHUMIDIFIER — CODE WORKFLOW</text><text x="540" y="52" font-size="13" text-anchor="middle" fill="#1a1a1a">firmware v2.x · zero libraries · every step mapped to its component</text><rect x="60" y="76" width="300" height="40" rx="10" fill="#e1d5e7" stroke="#9673a6" stroke-width="2"/><text x="210" y="101" font-size="13" text-anchor="middle" fill="#1a1a1a">① BOOT — setup() → initSystem()</text><rect x="60" y="130" width="300" height="50" rx="10" fill="#dae8fc" stroke="#6c8ebf" stroke-width="2"/><text x="210" y="152" font-size="13" text-anchor="middle" fill="#1a1a1a" font-weight="bold">supply::begin — LATCH HOLD GPIO14</text><text x="210" y="168" font-size="13" text-anchor="middle" fill="#1a1a1a">asserted within ms (or power dies)</text><rect x="60" y="192" width="300" height="50" rx="10" fill="#dae8fc" stroke="#6c8ebf" stroke-width="2"/><text x="210" y="214" font-size="13" text-anchor="middle" fill="#1a1a1a" font-weight="bold">pinsUnusedSafe — every unused pad</text><text x="210" y="230" font-size="13" text-anchor="middle" fill="#1a1a1a">parked (pull-up / input)</text><rect x="60" y="254" width="300" height="50" rx="10" fill="#dae8fc" stroke="#6c8ebf" stroke-width="2"/><text x="210" y="284" font-size="13" text-anchor="middle" fill="#1a1a1a">relay outputs OFF — ALL PINS LOW</text><rect x="60" y="316" width="300" height="50" rx="10" fill="#dae8fc" stroke="#6c8ebf" stroke-width="2"/><text x="210" y="346" font-size="13" text-anchor="middle" fill="#1a1a1a">printBanner + loadSettings — NVS v7</text><rect x="60" y="378" width="300" height="50" rx="10" fill="#dae8fc" stroke="#6c8ebf" stroke-width="2"/><text x="210" y="400" font-size="13" text-anchor="middle" fill="#1a1a1a" font-weight="bold">sensors.begin — AHT10 top +</text><text x="210" y="416" font-size="13" text-anchor="middle" fill="#1a1a1a">dht.begin — DHT22 return + DHT11 out</text><rect x="60" y="440" width="300" height="50" rx="10" fill="#dae8fc" stroke="#6c8ebf" stroke-width="2"/><text x="210" y="470" font-size="13" text-anchor="middle" fill="#1a1a1a">battery.begin — divider ADC4 + gate 5</text><rect x="60" y="502" width="300" height="50" rx="10" fill="#dae8fc" stroke="#6c8ebf" stroke-width="2"/><text x="210" y="524" font-size="13" text-anchor="middle" fill="#1a1a1a" font-weight="bold">buzzer.begin + bz::powerOn — KY-012</text><text x="210" y="540" font-size="13" text-anchor="middle" fill="#1a1a1a">2 beeps/s × 3 s</text><rect x="60" y="564" width="300" height="50" rx="10" fill="#dae8fc" stroke="#6c8ebf" stroke-width="2"/><text x="210" y="594" font-size="13" text-anchor="middle" fill="#1a1a1a">keypad.begin — PCF #1 @ 0x20</text><rect x="60" y="626" width="300" height="50" rx="10" fill="#dae8fc" stroke="#6c8ebf" stroke-width="2"/><text x="210" y="648" font-size="13" text-anchor="middle" fill="#1a1a1a" font-weight="bold">web::begin — hotspot + site</text><text x="210" y="664" font-size="13" text-anchor="middle" fill="#1a1a1a">(ARCHITECTS OF SOLUTIONS)</text><rect x="60" y="688" width="300" height="50" rx="10" fill="#dae8fc" stroke="#6c8ebf" stroke-width="2"/><text x="210" y="710" font-size="13" text-anchor="middle" fill="#1a1a1a" font-weight="bold">scale.begin — HX711 1/2</text><text x="210" y="726" font-size="13" text-anchor="middle" fill="#1a1a1a">(saved calibration restored)</text><rect x="60" y="750" width="300" height="50" rx="10" fill="#dae8fc" stroke="#6c8ebf" stroke-width="2"/><text x="210" y="772" font-size="13" text-anchor="middle" fill="#1a1a1a" font-weight="bold">door::begin(false) — limit switch up,</text><text x="210" y="788" font-size="13" text-anchor="middle" fill="#1a1a1a">lock stays LOW (init window)</text><rect x="60" y="812" width="300" height="50" rx="10" fill="#dae8fc" stroke="#6c8ebf" stroke-width="2"/><text x="210" y="842" font-size="13" text-anchor="middle" fill="#1a1a1a">txdisp::begin — UART GPIO3 → UNO</text><rect x="60" y="874" width="300" height="50" rx="10" fill="#dae8fc" stroke="#6c8ebf" stroke-width="2"/><text x="210" y="896" font-size="13" text-anchor="middle" fill="#1a1a1a" font-weight="bold">web::begin — hotspot + site</text><text x="210" y="912" font-size="13" text-anchor="middle" fill="#1a1a1a">door begin(false) + clockBoot (NVS)</text><rect x="60" y="936" width="300" height="50" rx="10" fill="#dae8fc" stroke="#6c8ebf" stroke-width="2"/><text x="210" y="966" font-size="13" text-anchor="middle" fill="#1a1a1a">ArduinoOTA + mDNS — "SMART-DEHUMIDIFIER"</text><rect x="60" y="998" width="300" height="56" rx="10" fill="#fff2cc" stroke="#d6b656" stroke-width="2"/><text x="210" y="1022" font-size="13" text-anchor="middle" fill="#1a1a1a" font-weight="bold">10 s INIT + CALIBRATION window</text><text x="210" y="1040" font-size="13" text-anchor="middle" fill="#1a1a1a">sensors/battery/scale settle · splash</text><rect x="60" y="1066" width="300" height="50" rx="10" fill="#dae8fc" stroke="#6c8ebf" stroke-width="2"/><text x="210" y="1088" font-size="13" text-anchor="middle" fill="#1a1a1a" font-weight="bold">supply::engage + door::engage</text><text x="210" y="1104" font-size="13" text-anchor="middle" fill="#1a1a1a">relay = toggle · lock = state</text><rect x="60" y="1128" width="300" height="50" rx="10" fill="#d5e8d4" stroke="#82b366" stroke-width="2"/><text x="210" y="1158" font-size="13" text-anchor="middle" fill="#1a1a1a">dryer.powerOn → IDLE (ready)</text><rect x="420" y="130" width="620" height="40" rx="10" fill="#e1d5e7" stroke="#9673a6" stroke-width="2"/><text x="730" y="155" font-size="13" text-anchor="middle" fill="#1a1a1a">② loop() — every pass (cooperative, 0 = DRYER_RTOS)</text><rect x="420" y="182" width="300" height="440" rx="10" fill="#dae8fc" stroke="#6c8ebf" stroke-width="2"/><text x="570" y="288" font-size="13" text-anchor="middle" fill="#1a1a1a">web::handle — site + captive DNS</text><text x="570" y="305" font-size="13" text-anchor="middle" fill="#1a1a1a">ArduinoOTA.handle — IDE upload</text><text x="570" y="322" font-size="13" text-anchor="middle" fill="#1a1a1a">sensors.update — AHT10 + DHT22 avg</text><text x="570" y="339" font-size="13" text-anchor="middle" fill="#1a1a1a">battery.update — ADC (5 s)</text><text x="570" y="356" font-size="13" text-anchor="middle" fill="#1a1a1a">dryer.tick — control core (1 s)</text><text x="570" y="373" font-size="13" text-anchor="middle" fill="#1a1a1a">keypad.update → menu::key</text><text x="570" y="390" font-size="13" text-anchor="middle" fill="#1a1a1a">scale.update — HX711 (2 Hz)</text><text x="570" y="407" font-size="13" text-anchor="middle" fill="#1a1a1a">door::update — lock/limit workflow</text><text x="570" y="424" font-size="13" text-anchor="middle" fill="#1a1a1a">supply::update — buttons/toggle/opto</text><text x="570" y="441" font-size="13" text-anchor="middle" fill="#1a1a1a">dht.update — DHT11 outdoor (10 s)</text><text x="570" y="458" font-size="13" text-anchor="middle" fill="#1a1a1a">rtc.sync — DS1302 boot restore · set-mirror</text><text x="570" y="475" font-size="13" text-anchor="middle" fill="#1a1a1a">serviceSerial — console</text><text x="570" y="492" font-size="13" text-anchor="middle" fill="#1a1a1a">serviceButton — BOOT btn (S3)</text><text x="570" y="509" font-size="13" text-anchor="middle" fill="#1a1a1a">buzzer.update — beep edges</text><text x="570" y="526" font-size="13" text-anchor="middle" fill="#1a1a1a">maybeAutoStart · maybeDiag (15 s)</text><rect x="760" y="182" width="280" height="440" rx="10" fill="#fff2cc" stroke="#d6b656" stroke-width="2"/><text x="900" y="262" font-size="13" text-anchor="middle" fill="#1a1a1a">COMPONENTS DRIVEN</text><text x="900" y="280" font-size="13" text-anchor="middle" fill="#1a1a1a"></text><text x="900" y="296" font-size="13" text-anchor="middle" fill="#1a1a1a">phone (hotspot site)</text><text x="900" y="314" font-size="13" text-anchor="middle" fill="#1a1a1a">PC (OTA upload)</text><text x="900" y="330" font-size="13" text-anchor="middle" fill="#1a1a1a">AHT10 + DHT22 (chamber)</text><text x="900" y="348" font-size="13" text-anchor="middle" fill="#1a1a1a">battery divider</text><text x="900" y="364" font-size="13" text-anchor="middle" fill="#1a1a1a">BTS7960 + 500 W coil</text><text x="900" y="382" font-size="13" text-anchor="middle" fill="#1a1a1a">L298N + outlet fan</text><text x="900" y="398" font-size="13" text-anchor="middle" fill="#1a1a1a">PCF #1 keypad</text><text x="900" y="416" font-size="13" text-anchor="middle" fill="#1a1a1a">PCF #2 relays · buzzer · buttons</text><text x="900" y="432" font-size="13" text-anchor="middle" fill="#1a1a1a">toggle · opto · door switch</text><text x="900" y="450" font-size="13" text-anchor="middle" fill="#1a1a1a">HX711 + load cells</text><text x="900" y="466" font-size="13" text-anchor="middle" fill="#1a1a1a">AT24C256 cycle registry</text><text x="900" y="484" font-size="13" text-anchor="middle" fill="#1a1a1a">door limit switch</text><text x="900" y="500" font-size="13" text-anchor="middle" fill="#1a1a1a">DHT11 outdoor sensor</text><text x="900" y="518" font-size="13" text-anchor="middle" fill="#1a1a1a">DS1302 RTC (CR2032 coin cell)</text><text x="900" y="534" font-size="13" text-anchor="middle" fill="#1a1a1a">phone/tablet (web display</text><text x="900" y="552" font-size="13" text-anchor="middle" fill="#1a1a1a">+ full control page)</text><rect x="420" y="640" width="620" height="36" rx="10" fill="#e1d5e7" stroke="#9673a6" stroke-width="2"/><text x="730" y="663" font-size="13" text-anchor="middle" fill="#1a1a1a">③ dryer.tick() — the 1-second control core</text><rect x="420" y="692" width="290" height="56" rx="10" fill="#dae8fc" stroke="#6c8ebf" stroke-width="2"/><text x="565" y="716" font-size="13" text-anchor="middle" fill="#1a1a1a" font-weight="bold">state machine — IDLE → RUNNING →</text><text x="565" y="734" font-size="13" text-anchor="middle" fill="#1a1a1a">COOLDOWN → DONE / FAULT</text><rect x="420" y="762" width="290" height="56" rx="10" fill="#f8cecc" stroke="#b85450" stroke-width="2"/><text x="565" y="786" font-size="13" text-anchor="middle" fill="#1a1a1a" font-weight="bold">SAFETY: 95 °C hard cut ·</text><text x="565" y="804" font-size="13" text-anchor="middle" fill="#1a1a1a">sensors dead 15 s → FAULT</text><rect x="420" y="832" width="290" height="56" rx="10" fill="#f8cecc" stroke="#b85450" stroke-width="2"/><text x="565" y="856" font-size="13" text-anchor="middle" fill="#1a1a1a" font-weight="bold">WATCHDOGS: heater failure</text><text x="565" y="874" font-size="13" text-anchor="middle" fill="#1a1a1a">(flat 3 min) · fan error (RH 5 min)</text><rect x="420" y="902" width="290" height="56" rx="10" fill="#dae8fc" stroke="#6c8ebf" stroke-width="2"/><text x="565" y="926" font-size="13" text-anchor="middle" fill="#1a1a1a" font-weight="bold">heatStep — PID/boost duty</text><text x="565" y="944" font-size="13" text-anchor="middle" fill="#1a1a1a">→ RPWM 12 (BTS7960 → coil)</text><rect x="420" y="972" width="290" height="56" rx="10" fill="#dae8fc" stroke="#6c8ebf" stroke-width="2"/><text x="565" y="996" font-size="13" text-anchor="middle" fill="#1a1a1a" font-weight="bold">fanStep — burst law</text><text x="565" y="1014" font-size="13" text-anchor="middle" fill="#1a1a1a">→ ENB 17 (L298N → fan)</text><rect x="420" y="1042" width="290" height="56" rx="10" fill="#dae8fc" stroke="#6c8ebf" stroke-width="2"/><text x="565" y="1066" font-size="13" text-anchor="middle" fill="#1a1a1a" font-weight="bold">target weight — T-5 min warn</text><text x="565" y="1084" font-size="13" text-anchor="middle" fill="#1a1a1a">+ suggestion (HX711 g/min)</text><rect x="420" y="1112" width="290" height="56" rx="10" fill="#dae8fc" stroke="#6c8ebf" stroke-width="2"/><text x="565" y="1136" font-size="13" text-anchor="middle" fill="#1a1a1a" font-weight="bold">completion gates —</text><text x="565" y="1154" font-size="13" text-anchor="middle" fill="#1a1a1a">time · RH · weight-rate</text><rect x="420" y="1182" width="290" height="56" rx="10" fill="#dae8fc" stroke="#6c8ebf" stroke-width="2"/><text x="565" y="1206" font-size="13" text-anchor="middle" fill="#1a1a1a" font-weight="bold">cyclelog record (10 s)</text><text x="565" y="1224" font-size="13" text-anchor="middle" fill="#1a1a1a">→ LittleFS CSV (wt_g · mode)</text><rect x="740" y="692" width="300" height="546" rx="10" fill="#f5f5f5" stroke="#666666" stroke-width="2"/><text x="890" y="876" font-size="13" text-anchor="middle" fill="#1a1a1a">EVENTS INTO THE MACHINE</text><text x="890" y="894" font-size="13" text-anchor="middle" fill="#1a1a1a"></text><text x="890" y="910" font-size="13" text-anchor="middle" fill="#1a1a1a">start() — refused until the scale is</text><text x="890" y="928" font-size="13" text-anchor="middle" fill="#1a1a1a">calibrated (door gate) · captures</text><text x="890" y="944" font-size="13" text-anchor="middle" fill="#1a1a1a">batch weight</text><text x="890" y="962" font-size="13" text-anchor="middle" fill="#1a1a1a">stop() — user stop → purge</text><text x="890" y="978" font-size="13" text-anchor="middle" fill="#1a1a1a">powerOn() — DONE/FAULT → IDLE</text><text x="890" y="996" font-size="13" text-anchor="middle" fill="#1a1a1a">addMinutes(+15) — live</text><text x="890" y="1012" font-size="13" text-anchor="middle" fill="#1a1a1a">applyMode(0/1/2) — AGARBATTI /</text><text x="890" y="1030" font-size="13" text-anchor="middle" fill="#1a1a1a">USER / SILICAGEL presets</text><text x="890" y="1046" font-size="13" text-anchor="middle" fill="#1a1a1a">faultNow("door opened!")</text><text x="890" y="1064" font-size="13" text-anchor="middle" fill="#1a1a1a">setManualHeat(knob %, 60 s)</text><rect x="420" y="1330" width="620" height="150" rx="10" fill="#d5e8d4" stroke="#82b366" stroke-width="2"/><text x="730" y="1384" font-size="13" text-anchor="middle" fill="#1a1a1a">④ web::handle — the website on the hotspot</text><text x="730" y="1402" font-size="13" text-anchor="middle" fill="#1a1a1a">/api/data 1 Hz JSON (everything) · /api/start 403-gated · /api/scale tare+cal</text><text x="730" y="1418" font-size="13" text-anchor="middle" fill="#1a1a1a">/api/mode presets · /api/settime phone clock · /api/heat knob (60 s)</text><text x="730" y="1436" font-size="13" text-anchor="middle" fill="#1a1a1a">/update OTA (refused while RUNNING) · /api/log.csv history · captive DNS</text><rect x="60" y="1330" width="340" height="150" rx="10" fill="#f5f5f5" stroke="#666666" stroke-width="2"/><text x="230" y="1368" font-size="13" text-anchor="middle" fill="#1a1a1a">DATA FLOW</text><text x="230" y="1384" font-size="13" text-anchor="middle" fill="#1a1a1a">AHT10 → PID → PWM → coil</text><text x="230" y="1402" font-size="13" text-anchor="middle" fill="#1a1a1a">RH → burst law → fan</text><text x="230" y="1418" font-size="13" text-anchor="middle" fill="#1a1a1a">grams → gates + target</text><text x="230" y="1436" font-size="13" text-anchor="middle" fill="#1a1a1a">faults → beep + site + CSV</text><text x="230" y="1452" font-size="13" text-anchor="middle" fill="#1a1a1a">clock → NVS 30 min</text><rect x="60" y="1250" width="1000" height="60" rx="10" fill="#f5f5f5" stroke="#666666" stroke-width="2"/><text x="560" y="1285" font-size="13" text-anchor="middle" fill="#1a1a1a">DRYER_RTOS 1 = the same work split into 5 FreeRTOS tasks: web @ core 0 · sensors / control / panel / power @ core 1 · Wire mutex protects the shared I2C bus</text><rect x="60" y="1500" width="1000" height="110" rx="10" fill="#f5f5f5" stroke="#666666" stroke-width="2"/><text x="560" y="1552" font-size="13" text-anchor="middle" fill="#1a1a1a">FILE MAP — main.cpp (boot · loop · console · watchdogs) · control.* (state machine · PID · fan law · gates) · sensors/aht10.* · battery.* · buzzer.* · keypad.* (PCF #1) ·</text><text x="560" y="1568" font-size="13" text-anchor="middle" fill="#1a1a1a">scale.* (HX711) · door.* (workflow) · supply.* (latch · selector) · menu.* (keypad UI) · dht.* (DHT22 return + DHT11 out) · rtc.* (DS1302 clock) · web/webui (site — incl. /display kiosk) · cyclelog (CSV)</text></svg>